<svg width="38" height="37" xmlns="http://www.w3.org/2000/svg" xmlns:xlink="http://www.w3.org/1999/xlink" overflow="hidden"><defs><clipPath id="clip0"><rect x="635" y="231" width="38" height="37"/></clipPath><clipPath id="clip1"><rect x="636" y="231" width="36" height="36"/></clipPath><clipPath id="clip2"><rect x="636" y="231" width="36" height="36"/></clipPath><clipPath id="clip3"><rect x="636" y="231" width="36" height="36"/></clipPath></defs><g clip-path="url(#clip0)" transform="translate(-635 -231)"><path d="M638.5 249C638.5 240.44 645.44 233.5 654 233.5 662.56 233.5 669.5 240.44 669.5 249 669.5 257.56 662.56 264.5 654 264.5 645.44 264.5 638.5 257.56 638.5 249Z" stroke="#FFFFFF" stroke-width="3" stroke-miterlimit="8" fill="#FFFFFF" fill-rule="evenodd"/><g clip-path="url(#clip1)"><g clip-path="url(#clip2)"><g clip-path="url(#clip3)"><path d="M654 234C645.705 234 639 240.705 639 249 639 257.295 645.705 264 654 264 662.295 264 669 257.295 669 249 669 240.705 662.295 234 654 234ZM661.5 254.385 659.385 256.5 654 251.115 648.615 256.5 646.5 254.385 651.885 249 646.5 243.615 648.615 241.5 654 246.885 659.385 241.5 661.5 243.615 656.115 249 661.5 254.385Z"/></g></g></g></g></svg>