<svg xmlns="http://www.w3.org/2000/svg" width="20" height="20" viewBox="0 0 20 20">
    <g fill="none" fill-rule="evenodd">
        <g fill="#BFC5D2">
            <g>
                <g>
                    <path d="M9.9 13.3c.442 0 .8.358.8.8v6.8c0 .442-.358.8-.8.8H3.1c-.442 0-.8-.358-.8-.8v-6.8c0-.442.358-.8.8-.8h6.8zm11 0c.442 0 .8.358.8.8v6.8c0 .442-.358.8-.8.8h-6.8c-.442 0-.8-.358-.8-.8v-6.8c0-.442.358-.8.8-.8h6.8zm-.65 1.45h-5.5v5.5h5.5v-5.5zm-11 0h-5.5v5.5h5.5v-5.5zM9.9 2.3c.442 0 .8.358.8.8v6.8c0 .442-.358.8-.8.8H3.1c-.442 0-.8-.358-.8-.8V3.1c0-.442.358-.8.8-.8h6.8zm11 0c.442 0 .8.358.8.8v6.8c0 .442-.358.8-.8.8h-6.8c-.442 0-.8-.358-.8-.8V3.1c0-.442.358-.8.8-.8h6.8zm-.65 1.45h-5.5v5.5h5.5v-5.5zm-11 0h-5.5v5.5h5.5v-5.5z" transform="translate(-30 -194) translate(0 176) translate(28 16)"/>
                </g>
            </g>
        </g>
    </g>
</svg>
