<svg width="37" height="38" xmlns="http://www.w3.org/2000/svg" xmlns:xlink="http://www.w3.org/1999/xlink" overflow="hidden"><defs><clipPath id="clip0"><rect x="547" y="181" width="37" height="38"/></clipPath><clipPath id="clip1"><rect x="548" y="182" width="36" height="36"/></clipPath><clipPath id="clip2"><rect x="548" y="182" width="36" height="36"/></clipPath><clipPath id="clip3"><rect x="548" y="182" width="36" height="36"/></clipPath></defs><g clip-path="url(#clip0)" transform="translate(-547 -181)"><path d="M553 200.5C553 193.044 558.82 187 566 187 573.18 187 579 193.044 579 200.5 579 207.956 573.18 214 566 214 558.82 214 553 207.956 553 200.5Z" fill="#FFFFFF" fill-rule="evenodd"/><g clip-path="url(#clip1)"><g clip-path="url(#clip2)"><g clip-path="url(#clip3)"><path d="M569.885 194 566 197.885 562.115 194 560 196.115 563.885 200 560 203.885 562.115 206 566 202.115 569.885 206 572 203.885 568.115 200 572 196.115 569.885 194ZM566 185C557.705 185 551 191.705 551 200 551 208.295 557.705 215 566 215 574.295 215 581 208.295 581 200 581 191.705 574.295 185 566 185ZM566 212C559.385 212 554 206.615 554 200 554 193.385 559.385 188 566 188 572.615 188 578 193.385 578 200 578 206.615 572.615 212 566 212Z"/></g></g></g></g></svg>