<svg width="7" height="22" xmlns="http://www.w3.org/2000/svg" xmlns:xlink="http://www.w3.org/1999/xlink" overflow="hidden"><defs><clipPath id="clip0"><rect x="616" y="311" width="7" height="22"/></clipPath><clipPath id="clip1"><rect x="616" y="312" width="6" height="20"/></clipPath><clipPath id="clip2"><rect x="616" y="312" width="6" height="20"/></clipPath></defs><g clip-path="url(#clip0)" transform="translate(-616 -311)"><g clip-path="url(#clip1)"><g clip-path="url(#clip2)"><path d="M11.7392 7.8261C12.8152 7.8261 13.6957 6.94567 13.6957 5.86958 13.6957 4.79349 12.8152 3.91305 11.7392 3.91305 10.6631 3.91305 9.78263 4.79349 9.78263 5.86958 9.78263 6.94567 10.6631 7.8261 11.7392 7.8261ZM11.7392 9.78263C10.6631 9.78263 9.78263 10.6631 9.78263 11.7392 9.78263 12.8152 10.6631 13.6957 11.7392 13.6957 12.8152 13.6957 13.6957 12.8152 13.6957 11.7392 13.6957 10.6631 12.8152 9.78263 11.7392 9.78263ZM11.7392 15.6522C10.6631 15.6522 9.78263 16.5326 9.78263 17.6087 9.78263 18.6848 10.6631 19.5653 11.7392 19.5653 12.8152 19.5653 13.6957 18.6848 13.6957 17.6087 13.6957 16.5326 12.8152 15.6522 11.7392 15.6522Z" transform="matrix(1.02222 0 0 1 606.889 308.522)"/></g></g></g></svg>