<svg xmlns="http://www.w3.org/2000/svg" width="20" height="20" viewBox="0 0 20 20">
    <g fill="none" fill-rule="evenodd">
        <g fill="#BFC5D2">
            <g>
                <g>
                    <g>
                        <path d="M18.976 7.9l-1.404-.238c-.146-.472-.334-.927-.564-1.362l.828-1.157c.35-.493.296-1.166-.134-1.592l-1.245-1.245c-.234-.234-.543-.363-.873-.363-.26 0-.506.08-.715.23L13.708 3c-.451-.238-.923-.435-1.412-.581l-.234-1.387C11.962.435 11.448 0 10.842 0h-1.76c-.605 0-1.119.435-1.22 1.032l-.241 1.42c-.468.147-.924.339-1.358.573l-1.15-.827c-.208-.15-.459-.23-.718-.23-.33 0-.643.13-.873.363l-1.25 1.245c-.425.426-.484 1.1-.133 1.592l.836 1.174c-.23.439-.414.894-.556 1.366l-1.387.234C.435 8.042 0 8.556 0 9.162v1.76c0 .605.435 1.119 1.032 1.22l1.42.241c.147.468.339.924.573 1.358l-.823 1.145c-.351.493-.297 1.166.133 1.592l1.246 1.245c.233.234.543.363.873.363.259 0 .505-.079.714-.23l1.174-.835c.422.221.865.401 1.32.543l.234 1.404c.1.597.614 1.032 1.22 1.032h1.763c.606 0 1.12-.435 1.22-1.032l.239-1.404c.472-.146.927-.334 1.362-.564l1.157.827c.209.15.46.23.718.23.33 0 .64-.13.874-.363l1.245-1.245c.426-.427.484-1.1.133-1.592L17 13.695c.23-.438.422-.894.564-1.362l1.404-.234C19.565 12 20 11.485 20 10.88V9.12c.008-.605-.426-1.12-1.024-1.22zM10.85 1.125c.054 0 .1.037.109.092l.292 1.742c.038.221.2.401.418.455.63.16 1.233.406 1.792.736.193.113.43.104.615-.025l1.44-1.036c.022-.013.043-.021.064-.021.016 0 .05.004.079.033l1.245 1.245c.038.038.042.096.013.142l-1.032 1.45c-.13.18-.138.422-.025.614.325.547.568 1.136.726 1.75.055.218.234.38.452.414l1.754.297c.055.008.092.054.092.108v1.76h-.004c0 .054-.037.1-.092.108l-1.754.292c-.222.038-.397.201-.452.414-.158.614-.4 1.203-.727 1.75-.112.193-.104.431.025.615l1.032 1.454c.03.042.025.104-.012.142L15.655 16.9c-.03.03-.059.033-.08.033-.025 0-.046-.008-.062-.02l-1.45-1.033c-.18-.13-.422-.137-.614-.025-.547.326-1.137.569-1.75.727-.218.055-.38.234-.414.452l-.297 1.754c-.008.055-.054.092-.109.092H9.12c-.054 0-.1-.037-.108-.092l-.293-1.754c-.037-.222-.2-.397-.413-.452-.598-.154-1.174-.392-1.713-.702-.088-.05-.188-.075-.284-.075-.113 0-.23.034-.326.105L4.52 16.95c-.021.013-.042.02-.063.02-.017 0-.05-.003-.08-.033l-1.245-1.245c-.037-.037-.041-.096-.012-.142l1.028-1.441c.13-.184.138-.426.025-.618-.326-.544-.577-1.133-.736-1.747-.058-.213-.234-.376-.45-.413L1.22 11.03c-.054-.009-.092-.055-.092-.109V9.162c0-.054.038-.1.092-.108l1.742-.293c.222-.037.401-.2.456-.418.154-.614.392-1.207.714-1.754.113-.193.1-.43-.03-.61l-1.04-1.463c-.029-.041-.025-.104.013-.142L4.32 3.13c.03-.029.058-.033.08-.033.024 0 .045.008.062.02l1.441 1.029c.184.13.427.137.619.025.543-.326 1.132-.577 1.746-.736.213-.058.376-.234.414-.45l.3-1.768c.009-.055.055-.092.11-.092h1.758zm-.848 4.558c-2.381 0-4.316 1.934-4.316 4.316 0 2.381 1.935 4.316 4.316 4.316s4.316-1.935 4.316-4.316c0-2.382-1.935-4.316-4.316-4.316zm0 1.128c1.759 0 3.188 1.429 3.188 3.188 0 1.759-1.43 3.188-3.188 3.188-1.759 0-3.188-1.43-3.188-3.188 0-1.76 1.43-3.188 3.188-3.188z" transform="translate(-30 -530) translate(0 176) translate(0 336) translate(30 18)"/>
                    </g>
                </g>
            </g>
        </g>
    </g>
</svg>
